# xmcd CD database file
#
# Track frame offsets:
#	150
#	13289
#	30058
#	41445
#	52168
#	62362
#	76218
#	90709
#	103952
#	114963
#	124550
#	136745
#	148415
#	159822
#	169550
#	181361
#	192564
#	203769
#	218334
#	233260
#	245102
#
# Disc length: 3417 seconds
#
# Revision: 0
# Processed by: cddbd v1.5.2PL0 Copyright (c) Steve Scherf et al.
# Submitted via: ACXtractor (MTCDDB.DLL V2003.07.15)
#
DISCID=0f0d5715
DTITLE=Willie Nelson - Funny How Time slips Away
DYEAR=1999
DGENRE=Country
TTITLE0=Fire and Rain
TTITLE1=Me and Paul
TTITLE2=Crazy Arms
TTITLE3=Night Life
TTITLE4=Hello Walls
TTITLE5=If you can touch her at All
TTITLE6=Yesterdays Wine
TTITLE7=Help me make it Through the Night
TTITLE8=Good Times
TTITLE9=Mountain Dew
TTITLE10=You Ought to here me Cry
TTITLE11=One in a Row
TTITLE12=She's not for You
TTITLE13=San Antonio Rose
TTITLE14=Once more with Feeling
TTITLE15=I'm a Memory
TTITLE16=Pretty Paper
TTITLE17=Sweet Memories
TTITLE18=Little Things
TTITLE19=Laying my Burdens Down
TTITLE20=The Party's Over
EXTD=ID3G:   2 YEAR: 1999
EXTT0=
EXTT1=
EXTT2=
EXTT3=
EXTT4=
EXTT5=
EXTT6=
EXTT7=
EXTT8=
EXTT9=
EXTT10=
EXTT11=
EXTT12=
EXTT13=
EXTT14=
EXTT15=
EXTT16=
EXTT17=
EXTT18=
EXTT19=
EXTT20=
PLAYORDER=
